<?xml version="1.0" encoding="UTF-8" standalone="no"?>
<svg
   version="1.1"
   id="mdi-rabbit"
   width="24"
   height="24"
   viewBox="0 0 24 24"
   sodipodi:docname="rabbit-outline.svg"
   inkscape:version="1.2 (dc2aedaf03, 2022-05-15)"
   xmlns:inkscape="http://www.inkscape.org/namespaces/inkscape"
   xmlns:sodipodi="http://sodipodi.sourceforge.net/DTD/sodipodi-0.dtd"
   xmlns="http://www.w3.org/2000/svg"
   xmlns:svg="http://www.w3.org/2000/svg">
  <defs
     id="defs7" />
  <sodipodi:namedview
     id="namedview5"
     pagecolor="#505050"
     bordercolor="#eeeeee"
     borderopacity="1"
     inkscape:showpageshadow="0"
     inkscape:pageopacity="0"
     inkscape:pagecheckerboard="0"
     inkscape:deskcolor="#505050"
     showgrid="false"
     inkscape:zoom="32"
     inkscape:cx="17.828125"
     inkscape:cy="16"
     inkscape:window-width="2560"
     inkscape:window-height="1353"
     inkscape:window-x="1920"
     inkscape:window-y="0"
     inkscape:window-maximized="1"
     inkscape:current-layer="mdi-rabbit" />
  <path
     d="m 18.05,21 -2.73,-4.74 -0.96,0 m -3.49,-1.6 c 0.33,-0.19 0.72,-0.29 1.13,-0.29 1.3,0 2.36,1.06 2.36,2.36 0,1.31 -1.05,2.38 -2.36,2.38 h 3.3 V 21 H 6.79 C 6.55,21 6.3,20.91 6.12,20.72 5.75,20.35 5.75,19.75 6.12,19.38 v 0 l 0.5,-0.5 C 6.28,18.73 6,18.5 5.72,18.26 5.5,18.76 5,19.11 4.42,19.11 3.64,19.11 3,18.47 3,17.68 3,16.9 3.64,16.26 4.42,16.26 l 0.47,0.08 V 14.37 C 4.89,11.75 7,9.63 9.63,9.63 h 0.02 c 2.12,0.01 3.77,0.84 3.77,-0.47 0,-0.93 0.2,-1.3 0.54,-1.82 C 13.23,7 12.4,6.79 11.53,6.79 11,6.79 10.58,6.37 10.58,5.84 c 0,-0.43 0.28,-0.79 0.67,-0.91 L 10.58,4.89 C 10.06,4.89 9.63,4.47 9.63,3.95 9.63,3.42 10.06,3 10.58,3 h 0.95 c 2.1,0 3.94,1.15 4.93,2.85 l 0.28,-0.01 c 0.71,0 1.37,0.23 1.91,0.61 l 0.45,0.38 c 2.17,1.95 1.9,3.27 1.9,3.28 0,1.28 -1.06,2.33 -2.35,2.33 l -0.49,-0.05 v 0.08 c 0,1.11 -0.48,2.1 -1.23,2.8 L 20.24,21 h -2.19"
     id="path2"
     style="fill:none;stroke:#000000;stroke-linecap:round;stroke-linejoin:round;stroke-opacity:1"
     sodipodi:nodetypes="ccccsscccscscccssccsscscssccsssccccsccsccc" />
</svg>
