<?xml version="1.0" encoding="UTF-8" standalone="no"?>
<svg
   version="1.1"
   id="mdi-tortoise"
   width="24"
   height="24"
   viewBox="0 0 24 24"
   sodipodi:docname="tortoise-outline.svg"
   inkscape:version="1.2 (dc2aedaf03, 2022-05-15)"
   xmlns:inkscape="http://www.inkscape.org/namespaces/inkscape"
   xmlns:sodipodi="http://sodipodi.sourceforge.net/DTD/sodipodi-0.dtd"
   xmlns="http://www.w3.org/2000/svg"
   xmlns:svg="http://www.w3.org/2000/svg">
  <defs
     id="defs4372" />
  <sodipodi:namedview
     id="namedview4370"
     pagecolor="#505050"
     bordercolor="#eeeeee"
     borderopacity="1"
     inkscape:showpageshadow="0"
     inkscape:pageopacity="0"
     inkscape:pagecheckerboard="0"
     inkscape:deskcolor="#505050"
     showgrid="false"
     inkscape:zoom="32"
     inkscape:cx="20.546875"
     inkscape:cy="13.5625"
     inkscape:window-width="2560"
     inkscape:window-height="1353"
     inkscape:window-x="1920"
     inkscape:window-y="0"
     inkscape:window-maximized="1"
     inkscape:current-layer="mdi-tortoise" />
  <path
     d="M 19.31,5.6 C 18.09,5.56 16.88,6.5 16.5,8 16,10 16,10 15,11 L 14.43,9.44 C 13.44,7.34 11.32,6 9,6 5.6862915,6 3,8.6862915 3,12 c 0,0.6 0.13,1.08 0.23,1.6 0,0 0.2623986,1.08617 0.4104904,1.175678 C 3.8683933,14.913425 4,15 4,15 c -1,0.16 -1.5,0.5 -2,1 2,0 4,0 2.5,1.5 L 3,19 h 3 l 2,-2 c 2,1 3.33,1 5.33,0 L 14,19 h 3 l -1,-3 c 0,0 1,-4 2,-5 1,-1 1,0 2,0 1,0 2,-1 2,-2.5 C 22,8 22,7 20.5,6 20.15,5.76 19.74,5.62 19.31,5.6"
     id="path4367"
     style="fill:none;stroke:#000000;stroke-linecap:round;stroke-linejoin:round;stroke-opacity:1"
     sodipodi:nodetypes="ccccsscsccscccccccssscc" />
</svg>
